<svg width="1816" height="1058" viewBox="0 0 1816 1058" fill="none" xmlns="http://www.w3.org/2000/svg">
  <path d="M3.05176e-05 1054.6L226.985 1053.56L453.926 1053.18L907.896 1052.44L1361.86 1053.18L1588.81 1053.56L1815.79 1054.6L1588.81 1055.67L1361.86 1056.02L907.896 1056.75L453.926 1056.02L226.985 1055.63L3.05176e-05 1054.6Z" fill="#263238" />
  <path d="M22.1302 1054.6H569.873L460.686 419.281H51.063L22.1302 1054.6Z" fill="#DBDBDB" />
  <path d="M22.1302 1054.6H70.1362L97.0885 419.281H51.063L22.1302 1054.6Z" fill="#A6A6A6" />
  <path d="M451.903 518.307C520.446 660.387 682.935 894.993 750.961 833.812C852.742 742.364 917.669 544.57 943.416 464.661C957.839 419.841 729.821 351.986 717.12 392.63C699.037 450.452 671.525 570.877 654.088 588.314C644.917 597.484 567.978 495.703 510.672 447.998C427.878 379.24 429.988 472.97 451.903 518.307Z" fill="#FBB2A2" />
  <path d="M991.723 368.218C981.993 416.827 923.266 508.447 900.576 525.109C877.886 541.772 718.455 451.615 714.838 422.941C711.221 394.266 757.204 228.634 795.953 196.128C834.703 163.622 1001.8 317.887 991.723 368.218Z" fill="#FBB2A2" />
  <path d="M718.455 389.573C718.455 389.573 707.519 326.067 679.705 276.511C656.37 234.877 616.975 175.677 638.89 162.244C683.925 134.732 782.09 282.453 782.09 282.453C782.09 282.453 814.94 354.569 772.747 385.784C746.096 405.331 718.455 389.573 718.455 389.573Z" fill="#FBB2A2" />
  <path d="M746.397 258.127C755.353 282.797 779.334 258.127 779.334 258.127C779.334 258.127 753.501 301.914 772.402 323.828C790.787 344.882 818.729 314.098 820.753 311.902C819.418 314.227 796.556 354.957 817.997 375.15C840.257 395.988 862.99 360.253 864.453 357.928C863.851 360.511 856.66 395.041 876.379 406.58C910.264 426.385 931.145 338.596 958.872 323.096C958.872 323.096 990.518 367.098 991.723 368.175C991.723 368.175 1013.25 285.079 990.259 248.827C986.994 243.504 982.009 239.454 976.13 237.348C970.25 235.242 963.828 235.206 957.925 237.245C957.925 237.245 967.828 211.412 951.467 194.922C943.071 186.57 922.19 192.598 922.19 192.598C922.19 192.598 929.294 171.458 913.837 157.852C901.524 146.959 882.536 154.709 882.536 154.709C882.536 154.709 879.867 131.201 863.721 124.184C831.129 109.932 727.367 205.213 746.397 258.127Z" fill="#FBB2A2" />
  <path d="M879.35 155.484C879.695 155.226 879.35 154.623 878.963 154.882C837.2 177.873 798.364 215.933 777.913 259.332C777.224 260.753 779.248 262.475 780.281 261.055C809.903 220.368 839.439 186.613 879.35 155.484Z" fill="#263238" />
  <path d="M922.534 191.952C922.965 191.65 922.534 190.918 921.888 191.177C878.834 215.158 836.425 259.246 818.772 312.031C818.126 313.84 819.418 316.078 820.279 314.055C834.702 279.826 886.368 219.808 922.534 191.952Z" fill="#263238" />
  <path d="M864.496 362.061C883.397 312.117 916.42 273.239 956.074 238.193C956.591 237.719 956.074 237.03 955.342 237.288C931.274 249.172 908.326 274.143 892.138 295.111C876.711 314.264 866.572 337.124 862.731 361.415C862.602 362.405 864.066 363.137 864.496 362.061Z" fill="#263238" />
  <path d="M778.473 258.299C777.655 260.021 781.056 259.332 780.281 261.055C777.138 268.331 761.94 313.883 775.976 323.871C787.127 331.837 805.597 322.408 811.281 315.992L825.532 299.847L817.481 319.867C813.949 328.774 811.898 338.198 811.41 347.767C810.923 352.178 811.378 356.643 812.743 360.866C814.109 365.089 816.354 368.974 819.332 372.265C822.122 375.296 825.869 377.276 829.946 377.872C834.022 378.468 838.18 377.643 841.72 375.537C849.583 370.677 856.073 363.889 860.578 355.818L873.753 333.989L868.457 358.832C866.986 365.748 866.393 372.821 866.692 379.886C866.745 386.585 868.75 393.124 872.462 398.701C874.256 401.134 876.694 403.019 879.5 404.144C882.306 405.27 885.37 405.591 888.349 405.073C894.814 402.906 900.532 398.95 904.839 393.663C914.384 382.349 923.022 370.299 930.672 357.626C934.977 351.383 938.809 345.097 943.201 338.984C947.253 332.621 952.609 327.192 958.916 323.053C953.171 327.825 948.418 333.676 944.923 340.275C941.048 346.604 937.517 353.192 933.901 359.693C927.022 373.156 918.892 385.942 909.618 397.883C904.699 404.442 897.962 409.413 890.243 412.177C885.88 413.223 881.306 412.964 877.089 411.433C872.871 409.903 869.196 407.167 866.52 403.566C861.664 396.798 858.949 388.729 858.727 380.402C858.224 372.545 858.76 364.655 860.32 356.937L868.199 359.951C863.057 369.583 855.469 377.691 846.198 383.459C841.001 386.489 834.917 387.629 828.976 386.688C823.133 385.554 817.773 382.671 813.606 378.422C804.995 370.026 802.971 357.799 803.531 347.422C804.245 336.909 806.674 326.583 810.721 316.853L817.179 320.815C809.731 328.737 790.227 341.567 771.369 331.363C748.593 314.486 773.306 266.738 778.473 258.299Z" fill="#263238" />
  <path d="M779.334 258.17C774.88 261.229 769.988 263.596 764.825 265.188C762.764 265.878 760.557 266.006 758.431 265.559C756.304 265.113 754.335 264.108 752.726 262.648C749.689 258.959 747.777 254.476 747.215 249.731C746.311 244.522 745.665 239.011 745.235 233.284C742.818 238.616 741.542 244.394 741.489 250.248C741.296 253.464 741.74 256.687 742.797 259.732C743.854 262.776 745.501 265.581 747.646 267.986C750.289 270.331 753.572 271.83 757.075 272.292C760.427 272.586 763.795 271.945 766.805 270.441C772.176 267.781 776.563 263.484 779.334 258.17V258.17Z" fill="#263238" />
  <path d="M703.472 397.366L943.287 554.516C943.287 554.516 811.022 849.441 724.181 851.163C637.34 852.885 505.807 638.386 459.739 545.474C413.67 452.562 437.393 371.878 527.292 455.361C617.19 538.844 649.524 573.202 652.15 571.996C657.791 569.585 703.472 397.366 703.472 397.366Z" fill="#6C63FF" />
  <path d="M943.287 554.516C943.287 554.516 851.58 759.112 770.723 828.473C754.534 842.423 738.733 850.905 724.181 851.163C637.339 852.842 505.807 638.343 459.696 545.474C431.15 487.91 429.557 435.082 453.582 423.07C468.436 415.621 493.063 423.586 527.292 455.361C617.707 539.361 649.524 573.202 652.15 571.953C657.747 569.585 703.515 397.366 703.515 397.366L943.287 554.516Z" fill="#6C63FF" />
  <path d="M888.435 583.363C882.063 578.411 875.518 573.589 869.189 568.767C856.129 559.008 843.026 549.292 829.88 539.619C803.789 520.373 777.181 501.903 750.358 483.648C735.117 473.315 720.22 462.379 704.505 452.734C704.356 452.626 704.171 452.581 703.989 452.609C703.808 452.637 703.645 452.737 703.536 452.885C703.428 453.033 703.383 453.219 703.411 453.401C703.439 453.582 703.538 453.745 703.687 453.854C716.216 464.316 729.52 473.788 742.436 483.691C755.353 493.593 768.269 503.539 781.444 513.226C807.621 532.4 834.042 551.158 860.708 569.499C868.199 574.665 875.518 580.176 883.225 584.998C887.186 587.453 890.932 590.251 894.936 592.662C898.94 595.073 903.117 597.226 907.035 599.766C907.077 599.795 907.124 599.814 907.174 599.824C907.224 599.834 907.276 599.834 907.326 599.824C907.376 599.814 907.423 599.794 907.466 599.766C907.508 599.737 907.544 599.701 907.573 599.659C907.601 599.616 907.621 599.569 907.631 599.519C907.64 599.469 907.64 599.417 907.63 599.367C907.62 599.317 907.601 599.27 907.572 599.228C907.544 599.185 907.507 599.149 907.465 599.12C901.093 594.083 894.979 588.486 888.435 583.363Z" fill="#263238" />
  <path d="M654.217 566.528C645.886 590.998 639.197 615.997 634.197 641.357C631.484 653.886 629.418 666.544 627.394 679.159C625.229 691.685 623.92 704.344 623.476 717.048C623.476 717.521 624.122 717.521 624.251 717.048C627.781 704.863 630.322 692.162 632.862 679.676C635.402 667.19 638.071 654.618 640.526 642.046C645.434 616.945 651.332 591.973 655.466 566.743C655.552 565.968 654.475 565.796 654.217 566.528Z" fill="#263238" />
  <path opacity="0.1" d="M770.723 828.473C754.534 842.423 738.733 850.905 724.181 851.163C637.339 852.842 505.807 638.343 459.696 545.474C431.15 487.91 429.557 435.082 453.582 423.07L770.723 828.473Z" fill="black" />
  <path d="M632.087 1054.6H67.2946C64.7974 1043.19 153.662 548.488 344.094 409.163C386.373 378.25 461.332 398.141 482.17 428.193C587.008 579.229 632.087 1054.6 632.087 1054.6Z" fill="#EBEBEB" />
  <path d="M331.608 412.866C331.608 412.866 381.465 631.928 386.589 650.829C391.712 669.73 410.183 1054.6 410.183 1054.6H62.1711C62.1711 1054.6 140.488 563.773 331.608 412.866Z" fill="#6C63FF" />
  <path d="M482.17 428.193C482.17 428.193 503.999 596.107 506.582 605.837C509.165 615.568 580.679 1054.6 580.679 1054.6H634.885C634.885 1054.6 587.482 547.153 482.17 428.193Z" fill="#6C63FF" />
  <path d="M264.83 476.414C163.048 619.744 15.5858 876.436 83.5262 922.117C195.469 997.248 502.664 1017.4 572.93 1019.12C603.068 1019.85 644.573 818.226 622.141 794.804C599.71 771.383 277.961 783.998 273.871 764.666C271.503 753.687 310.855 652.078 330.79 530.233C353.781 389.573 293.547 436.115 264.83 476.414Z" fill="#FBB2A2" />
  <path d="M568.194 783.653C568.194 783.653 659.943 774.224 720.263 770.737C753.932 768.886 811.883 770.737 837.243 780.726C875.131 795.58 1024.23 881.904 1004.08 918.501C985.825 951.653 867.166 861.238 867.166 861.238C867.166 861.238 994.995 941.879 965.675 977.744C936.355 1013.61 815.888 893.572 815.888 893.572C815.888 893.572 945.353 979.423 909.316 1011.59C882.063 1035.91 766.805 933.398 766.805 933.398C766.805 933.398 877.542 1007.93 850.59 1034.15C820.839 1063.12 708.509 975.161 708.509 975.161C628.772 1030.31 568.28 1023.94 525.742 1014.3C515.451 1012.02 568.194 783.653 568.194 783.653Z" fill="#FBB2A2" />
  <path d="M824.757 830.583C840.127 839.495 855.713 848.451 870.223 858.698C884.732 868.945 898.897 879.751 912.373 891.333C945.482 919.706 961.757 942.654 960.595 941.363C933.169 910.406 881.804 872.863 867.252 862.573C852.699 852.282 838.836 841.39 824.197 831.1C823.982 830.841 824.369 830.368 824.757 830.583Z" fill="#263238" />
  <path d="M786.739 882.292C805.856 894.562 825.273 906.015 843.873 919.103C862.473 932.192 887.66 951.308 905.183 965.603C906.518 966.679 905.527 969.09 904.107 968.014C886.024 954.451 859.33 936.11 841.075 922.763C822.819 909.416 805.081 895.337 786.395 882.722C786.094 882.55 786.438 882.119 786.739 882.292Z" fill="#263238" />
  <path d="M746.139 920.826C776.277 938.048 803.23 960.824 829.149 983.815C830.44 984.934 829.148 985.279 827.685 984.159C800.474 962.632 779.248 945.668 745.493 921.859C744.976 921.515 745.493 920.438 746.139 920.826Z" fill="#263238" />
  <path d="M568.323 771.641L482.213 1031.82C482.213 1031.82 89.5109 981.791 60.2767 910.88C31.0425 839.969 148.324 624.953 245.412 492.861C340.951 362.922 349.045 450.754 331.263 545.948C313.482 641.142 280.071 752.051 285.711 759.586C291.352 767.12 568.323 771.641 568.323 771.641Z" fill="#6C63FF" />
  <path d="M434.293 994.794C437.35 987.345 440.278 979.854 443.206 972.319C448.946 957.106 454.773 941.879 460.686 926.638C472.182 896.284 482.816 865.716 493.106 834.975C498.919 817.494 505.42 800.186 510.328 782.491C510.391 782.314 510.381 782.119 510.3 781.949C510.219 781.78 510.074 781.649 509.897 781.587C509.72 781.524 509.526 781.534 509.356 781.615C509.187 781.695 509.056 781.84 508.993 782.017C502.32 796.871 496.766 812.155 490.781 827.44C484.797 842.724 478.597 857.578 472.827 872.992C461.418 903.13 450.525 933.828 439.933 964.483C437.006 973.094 433.691 981.705 431.323 990.316C429.988 994.621 428.309 998.927 427.017 1003.66C425.725 1008.4 424.821 1012.75 423.443 1017.23C423.409 1017.32 423.415 1017.43 423.459 1017.52C423.504 1017.61 423.583 1017.69 423.68 1017.72C423.777 1017.75 423.884 1017.75 423.977 1017.7C424.07 1017.66 424.141 1017.58 424.175 1017.48C427.275 1009.86 431.021 1002.46 434.293 994.794Z" fill="#263238" />
  <path d="M488.973 1013.91L482.902 1032.12V1032.68H482.256C445.186 1029.32 408.288 1024.63 371.519 1018.95C334.751 1013.26 298.111 1006.55 261.73 998.496C225.31 990.689 189.371 980.784 154.093 968.832C136.372 962.816 119.105 955.536 102.427 947.046C94.1118 942.721 86.1634 937.724 78.661 932.106C70.9471 926.685 64.7151 919.417 60.535 910.966C65.3995 918.831 72.034 925.451 79.9096 930.298C87.6643 935.239 95.7984 939.558 104.236 943.214C121.14 950.658 138.48 957.071 156.16 962.416C191.508 973.309 227.544 982.049 263.796 989.972C300.049 997.894 336.43 1005 372.897 1011.5C409.365 1018 446.09 1024.67 482.644 1030.7L481.826 1031.22L488.973 1013.91Z" fill="#263238" />
  <path d="M564.965 781.802L567.892 771.512L568.323 772.115C529.574 773.148 490.824 773.578 452.075 773.191C413.326 772.803 374.576 772.028 335.827 769.962C326.097 769.402 316.366 768.756 306.636 767.809C301.728 767.292 296.906 766.819 291.868 765.915C290.547 765.701 289.239 765.414 287.95 765.054L285.711 764.322C285.164 764.066 284.632 763.778 284.118 763.461C283.611 763.114 283.173 762.676 282.827 762.169C282.595 761.859 282.393 761.527 282.224 761.179C282.199 761.007 282.199 760.833 282.224 760.662C281.837 758.968 281.75 757.219 281.966 755.495C281.966 754.204 281.966 752.869 282.396 751.664C285.41 732.031 289.888 713.302 294.408 694.358C303.45 656.556 313.611 619.098 324.547 581.812L300.91 695.778C297.207 714.723 292.902 733.839 290.447 752.654C290.447 753.816 290.447 754.893 290.103 756.055C290.146 756.743 290.146 757.434 290.103 758.122C290.103 758.122 290.103 758.122 290.103 758.122C290.021 757.899 289.92 757.683 289.802 757.476C289.586 757.132 288.984 756.744 289.156 756.83C289.328 756.916 289.156 756.83 289.156 756.83C289.544 756.997 289.948 757.127 290.361 757.218C291.308 757.476 292.428 757.691 293.547 757.906C297.853 758.681 302.89 759.155 307.626 759.586C317.184 760.447 326.829 761.006 336.516 761.523C355.805 762.614 375.15 763.489 394.554 764.149L452.635 766.388C491.384 767.766 530.133 769.488 568.882 771.339H569.571V771.942L564.965 781.802Z" fill="#263238" />
  <path d="M330.445 605.277C328.243 612.012 325.357 618.504 321.834 624.652C318.497 630.937 314.31 636.732 309.391 641.874C312.405 635.459 315.591 629.259 318.993 623.102C322.401 616.907 326.227 610.952 330.445 605.277V605.277Z" fill="#263238" />
  <path d="M454.83 505.218C422.066 514.561 362.909 466.469 338.583 426.557C336.947 423.802 343.534 310.783 342.501 288.265C342.501 283.658 485.356 316.208 485.356 316.208C485.356 316.208 473.602 364.042 475.583 403.308C475.841 406.58 486.476 496.392 454.83 505.218Z" fill="#FBB2A2" />
  <path d="M340.563 359.047C407.427 406.408 472.569 388.109 475.497 387.248C476.604 363.314 479.919 339.533 485.399 316.208C485.399 316.208 342.328 283.615 342.544 288.265C343.017 298.857 341.855 329.34 340.563 359.047Z" fill="#263238" />
  <path d="M477.822 208.485C481.481 241.809 507.96 266.221 537.409 262.992C566.859 259.763 587.396 230.141 583.736 196.817C580.077 163.493 553.383 139.081 524.149 142.267C494.914 145.453 474.162 175.117 477.822 208.485Z" fill="#455A64" />
  <path d="M460.901 212.446C464.948 249.559 494.656 276.727 527.205 273.153C559.755 269.579 582.789 236.599 578.871 199.486C574.953 162.373 544.944 135.249 512.438 139.037C479.931 142.826 456.811 175.376 460.901 212.446Z" fill="#C7C7C7" />
  <path d="M322.781 118.543C307.196 168.573 332.77 313.624 368.247 346.131C419.655 393.276 504.3 398.27 544.47 336.357C583.22 276.339 546.666 87.9314 507.013 58.3528C448.587 14.7383 345.859 44.6184 322.781 118.543Z" fill="#FBB2A2" />
  <path d="M443.335 209.604C443.335 209.217 442.646 210.207 442.732 210.594C444.928 220.282 445.789 231.734 437.565 236.427C437.307 236.427 437.565 237.073 437.781 236.987C448.243 233.758 446.951 218.43 443.335 209.604Z" fill="#263238" />
  <path d="M432.657 201.079C416.77 202.888 421.549 234.576 436.317 232.897C451.085 231.218 446.004 199.572 432.657 201.079Z" fill="#263238" />
  <path d="M499.693 201.983C499.693 201.596 500.554 202.328 500.598 202.715C501.76 212.575 504.903 223.683 514.117 225.577C514.418 225.577 514.461 226.137 514.117 226.137C503.181 226.266 499.22 211.499 499.693 201.983Z" fill="#263238" />
  <path d="M506.927 190.402C522.512 186.828 528.454 218.258 514.074 221.616C499.693 224.975 493.838 193.416 506.927 190.402Z" fill="#263238" />
  <path d="M417.976 188.507C421.957 186.647 425.837 184.577 429.6 182.308C434.003 180.698 437.745 177.669 440.235 173.697C440.777 172.302 440.848 170.768 440.436 169.33C440.024 167.891 439.152 166.627 437.953 165.731C432.571 162.244 426.414 163.88 420.946 166.549C415.328 169.145 410.887 173.754 408.504 179.466C408.048 180.77 407.978 182.177 408.301 183.52C408.624 184.863 409.328 186.084 410.327 187.038C411.326 187.992 412.579 188.637 413.935 188.898C415.291 189.159 416.694 189.023 417.976 188.507V188.507Z" fill="#263238" />
  <path d="M516.743 172.62C512.416 172.392 508.104 171.932 503.827 171.242C499.209 171.383 494.672 170.007 490.91 167.324C489.877 166.242 489.232 164.848 489.076 163.36C488.92 161.871 489.262 160.374 490.049 159.101C493.709 153.848 500.038 153.03 506.109 153.461C512.135 153.797 517.831 156.324 522.125 160.565C523.055 161.605 523.665 162.892 523.88 164.271C524.096 165.65 523.907 167.061 523.339 168.336C522.77 169.61 521.844 170.692 520.674 171.453C519.504 172.213 518.139 172.618 516.743 172.62V172.62Z" fill="#263238" />
  <path d="M448.674 301.526C451.386 303.464 454.228 306.262 457.801 306.047C461.47 305.353 464.949 303.886 468.005 301.741C468.071 301.701 468.149 301.684 468.226 301.693C468.302 301.702 468.374 301.737 468.429 301.792C468.483 301.846 468.518 301.918 468.527 301.995C468.536 302.071 468.519 302.149 468.479 302.215C467.369 304.35 465.703 306.145 463.657 307.411C461.61 308.677 459.26 309.366 456.854 309.405C454.774 309.193 452.804 308.368 451.195 307.034C449.585 305.7 448.408 303.918 447.812 301.914C447.826 301.82 447.863 301.732 447.92 301.657C447.976 301.582 448.051 301.522 448.137 301.484C448.223 301.445 448.317 301.429 448.411 301.436C448.504 301.444 448.595 301.474 448.674 301.526V301.526Z" fill="#263238" />
  <path d="M454.572 270.613C457.65 274.116 461.419 276.946 465.642 278.924C469.865 280.903 474.451 281.987 479.113 282.108C483.187 282.257 487.261 281.822 491.212 280.817C491.975 280.687 492.725 280.486 493.451 280.214L495.56 279.568C496.066 279.384 496.498 279.041 496.793 278.591C497.087 278.141 497.229 277.608 497.196 277.071V277.071C497.234 276.742 497.234 276.41 497.196 276.081V275.22C496.249 267.599 493.795 256.232 493.795 256.232C496.766 257.223 511.792 261.399 511.017 257.481C504.128 225.147 496.464 189.153 482.773 158.455C482.704 158.221 482.546 158.024 482.332 157.907C482.118 157.79 481.866 157.762 481.632 157.831C481.398 157.899 481.201 158.058 481.084 158.272C480.967 158.486 480.939 158.738 481.008 158.972C486.39 190.316 497.282 220.54 503.181 251.97C497.828 250.381 492.275 249.569 486.691 249.559C485.701 250.033 491.858 271.431 492.03 274.875V275.263C479.587 278.793 469.426 276.425 455.821 269.752C454.529 269.149 453.84 269.924 454.572 270.613Z" fill="#263238" />
  <path d="M486.174 277.674C482.832 283.69 477.999 288.746 472.138 292.355C468.892 294.222 465.146 295.034 461.418 294.68C453.28 293.819 451.989 286.629 452.505 280.257C452.801 276.882 453.51 273.557 454.615 270.354C464.085 276.098 475.143 278.662 486.174 277.674Z" fill="#263238" />
  <path d="M472.138 292.355C468.892 294.222 465.146 295.034 461.418 294.68C453.28 293.819 451.989 286.629 452.505 280.257C461.03 279.87 470.201 284.304 472.138 292.355Z" fill="#FF99BA" />
  <path d="M326.958 245.856C363.167 238.838 357.699 171.716 357.699 171.716C357.699 171.716 417.976 149.715 417.976 101.192C417.976 101.192 484.194 127.628 527.421 102.01C570.648 76.3927 550.886 25.6742 543.609 15.4272C536.333 5.18015 514.59 30.9269 514.59 30.9269C514.59 30.9269 505.979 1.77887 497.369 0.271954C488.758 -1.23496 483.677 18.3549 483.677 18.3549C483.677 18.3549 420.042 9.74397 366.095 21.4979C312.147 33.2519 295.614 93.1841 295.614 93.1841C295.614 93.1841 267.801 104.852 262.247 126.982C256.692 149.112 303.88 250.291 326.958 245.856Z" fill="#263238" />
  <path d="M343.146 174.988C392.444 172.233 418.32 134.172 416.34 86.769C416.317 86.6981 416.312 86.6229 416.324 86.5497C416.337 86.4764 416.366 86.407 416.41 86.3472C416.454 86.2873 416.512 86.2388 416.578 86.2052C416.644 86.1717 416.717 86.1542 416.792 86.1542C416.866 86.1542 416.939 86.1717 417.005 86.2052C417.072 86.2388 417.129 86.2873 417.173 86.3472C417.217 86.407 417.246 86.4764 417.259 86.5497C417.271 86.6229 417.266 86.6981 417.244 86.769C424.003 129.824 393.004 185.407 342.888 177.184C341.855 176.969 341.855 175.031 343.146 174.988Z" fill="#263238" />
  <path d="M296.992 92.0647C297.508 91.8063 297.939 92.6244 297.465 92.9257C285.195 101.752 270.685 109.373 263.538 123.409C254.927 140.415 261.084 159.402 268.532 175.419C280.114 200.304 300.005 231.648 326.269 242.541C327.776 243.187 326.742 245.383 325.236 244.866C294.107 233.672 269.264 192.77 259.749 162.761C248.899 129.178 266.595 105.498 296.992 92.0647Z" fill="#263238" />
  <path d="M473.344 104.594C496.981 113.205 528.54 107.909 546.537 89.4383C568.452 66.9638 557.559 38.806 541.973 16.5897C541.198 15.4703 542.705 13.8773 543.738 14.8676C562.769 33.4241 570.174 65.6722 552.952 88.0606C535.171 111.138 497.928 117.553 471.88 107.952C469.727 107.091 471.191 103.776 473.344 104.594Z" fill="#263238" />
  <path d="M353.049 236.772C353.049 236.772 319.639 190.402 298.542 202.328C277.445 214.254 302.847 281.85 328.12 290.805C331.257 292.173 334.639 292.892 338.061 292.919C341.484 292.945 344.876 292.279 348.034 290.959C351.192 289.64 354.05 287.695 356.436 285.241C358.822 282.788 360.687 279.877 361.918 276.683L353.049 236.772Z" fill="#FBB2A2" />
  <path d="M306.335 221.573C306.269 221.598 306.212 221.642 306.172 221.7C306.132 221.757 306.11 221.826 306.11 221.896C306.11 221.967 306.132 222.035 306.172 222.093C306.212 222.151 306.269 222.195 306.335 222.219C323.944 229.065 333.373 245.167 340.09 261.916C334.794 255.5 327.647 252.056 319.079 258.342C318.605 258.687 319.079 259.418 319.552 259.289C322.61 258.277 325.905 258.235 328.988 259.167C332.071 260.1 334.79 261.962 336.774 264.499C340.144 268.76 343.032 273.381 345.385 278.276C346.246 279.826 349.045 278.965 348.442 277.157V276.77C348.184 254.467 330.316 223.468 306.335 221.573Z" fill="#263238" />
  <path d="M316.539 204.007C316.539 204.007 298.499 132.019 312.534 87.7592C328.206 38.6768 392.918 -4.9377 483.892 18.1827C483.892 18.1827 379.571 21.0674 341.812 85.7787C324.59 115.53 341.123 201.381 341.123 201.381L316.539 204.007Z" fill="#C7C7C7" />
  <path d="M391.497 228.505C398.601 265.575 377.978 300.665 345.471 306.908C312.965 313.151 280.889 288.136 273.699 250.937C266.509 213.737 287.218 178.734 319.768 172.534C352.317 166.334 384.393 191.435 391.497 228.505Z" fill="#C7C7C7" />
  <path d="M374.017 229.668C380.389 262.992 361.875 294.551 332.641 300.148C303.407 305.746 274.517 283.271 268.059 249.946C261.601 216.622 280.2 185.063 309.435 179.466C338.669 173.869 367.558 196.343 374.017 229.668Z" fill="#455A64" />
  <path d="M1126.36 1031.65H551.704V1057.44H1126.36V1031.65Z" fill="#455A64" />
  <path d="M1126.4 1031.65H837.157V1057.44H1126.4V1031.65Z" fill="#37474F" />
  <path d="M854.68 1057.4H1414.74L1487.97 677.007H927.916L854.68 1057.4Z" fill="#37474F" />
  <path d="M877.456 1057.4H1437.51L1510.75 677.007H950.692L877.456 1057.4Z" fill="#455A64" />
  <path d="M1160.02 867.179C1159.55 871.518 1160 875.909 1161.35 880.06C1162.7 884.211 1164.92 888.026 1167.86 891.252C1170.8 894.478 1174.4 897.041 1178.41 898.77C1182.41 900.498 1186.74 901.354 1191.11 901.279C1200.39 901.125 1209.3 897.567 1216.13 891.281C1222.96 884.995 1227.25 876.418 1228.18 867.179C1228.66 862.842 1228.21 858.453 1226.85 854.305C1225.5 850.156 1223.28 846.343 1220.34 843.12C1217.4 839.898 1213.8 837.339 1209.79 835.615C1205.79 833.891 1201.46 833.042 1197.09 833.123C1187.82 833.285 1178.93 836.84 1172.1 843.116C1165.26 849.391 1160.97 857.952 1160.02 867.179Z" fill="white" />
  <path d="M1626.01 713.517C1682.24 768.541 1691.66 853.703 1679.82 928.317C1679.52 929.996 1676.9 929.523 1676.9 927.93C1676.9 910.966 1677.41 894.132 1677.37 877.34C1677.07 876.608 1676.81 875.876 1676.47 875.101C1661.83 864.424 1648.31 852.369 1639.96 835.836C1630.57 817.365 1627.04 796.57 1619.68 777.281C1619.03 775.43 1621.01 775.946 1622.3 776.894C1656.49 802.124 1667.38 829.291 1677.2 865.543C1676.99 846.57 1675 827.658 1671.26 809.055C1663.85 774.612 1649.26 740.512 1624.5 714.981C1624.3 714.781 1624.2 714.512 1624.2 714.234C1624.21 713.955 1624.32 713.69 1624.52 713.495C1624.72 713.301 1624.99 713.195 1625.27 713.199C1625.55 713.203 1625.81 713.317 1626.01 713.517V713.517Z" fill="#263238" />
  <path d="M1615.41 719.932C1605.77 720.234 1599.7 735.69 1592.16 740.211C1591.38 740.859 1590.46 741.333 1589.47 741.601C1588.49 741.87 1587.46 741.926 1586.45 741.768C1585.44 741.609 1584.48 741.239 1583.62 740.681C1582.77 740.123 1582.04 739.391 1581.49 738.532C1574 728.113 1584.24 715.239 1593.89 708.049C1587 710.891 1581.27 715.885 1573.87 717.263C1572.92 717.574 1571.91 717.677 1570.92 717.566C1569.92 717.454 1568.96 717.13 1568.11 716.615C1567.25 716.101 1566.51 715.408 1565.95 714.584C1565.38 713.759 1565 712.823 1564.83 711.838C1561.55 697.63 1579.38 691.301 1591.61 690.999C1585.66 686.909 1568.66 675.672 1577.7 670.161C1586.74 664.65 1606.8 680.666 1613.3 685.962C1622.86 693.712 1634.27 705.294 1634.83 717.435C1635.26 731.6 1622.86 722.903 1615.41 719.932Z" fill="#6C63FF" />
  <path opacity="0.1" d="M1615.41 719.932C1605.77 720.234 1599.7 735.69 1592.16 740.211C1591.38 740.859 1590.46 741.333 1589.47 741.601C1588.49 741.87 1587.46 741.926 1586.45 741.768C1585.44 741.609 1584.48 741.239 1583.62 740.681C1582.77 740.123 1582.04 739.391 1581.49 738.532C1574 728.113 1584.24 715.239 1593.89 708.049C1587 710.891 1581.27 715.885 1573.87 717.263C1572.92 717.574 1571.91 717.677 1570.92 717.566C1569.92 717.454 1568.96 717.13 1568.11 716.615C1567.25 716.101 1566.51 715.408 1565.95 714.584C1565.38 713.759 1565 712.823 1564.83 711.838C1561.55 697.63 1579.38 691.301 1591.61 690.999C1585.66 686.909 1568.66 675.672 1577.7 670.161C1586.74 664.65 1606.8 680.666 1613.3 685.962C1622.86 693.712 1634.27 705.294 1634.83 717.435C1635.26 731.6 1622.86 722.903 1615.41 719.932Z" fill="black" />
  <path d="M1618.3 722.3C1605.94 716.66 1582.18 724.754 1580.15 720.104C1576.06 710.546 1595.05 704.045 1605.3 702.882C1595.87 700.342 1577.78 696.252 1578.34 687.167C1579.03 676.059 1606.07 685.618 1619.76 696.08C1636.98 709.341 1636.98 721.913 1634.06 724.668C1630.05 728.026 1620.28 723.247 1618.3 722.3Z" fill="#6C63FF" />
  <path d="M1754.05 708.049C1695.75 760.92 1683.1 845.824 1692.1 920.653C1692.35 922.332 1694.98 921.988 1695.07 920.395C1695.71 903.431 1695.8 886.597 1696.49 869.849L1697.48 867.61C1712.55 857.492 1726.5 846.082 1735.45 829.765C1745.53 811.682 1750.05 791.015 1757.93 772.028C1758.66 770.177 1756.68 770.651 1755.34 771.555C1720.21 795.45 1708.28 822.187 1697.09 858.052C1698.04 839.099 1700.75 820.275 1705.18 801.822C1713.79 767.723 1729.81 734.183 1755.47 709.599C1755.68 709.41 1755.8 709.148 1755.81 708.87C1755.82 708.591 1755.72 708.319 1755.54 708.113C1755.35 707.908 1755.09 707.786 1754.81 707.774C1754.53 707.761 1754.26 707.861 1754.05 708.049V708.049Z" fill="#263238" />
  <path d="M1764.38 714.852C1774.03 715.541 1779.5 731.256 1786.86 736.035C1787.62 736.709 1788.52 737.214 1789.5 737.517C1790.47 737.82 1791.5 737.913 1792.51 737.791C1793.52 737.669 1794.5 737.335 1795.37 736.809C1796.24 736.284 1797 735.58 1797.58 734.743C1805.46 724.625 1795.68 711.364 1786.34 703.83C1793.1 706.93 1798.66 712.096 1806.02 713.818C1806.96 714.161 1807.96 714.299 1808.96 714.223C1809.95 714.146 1810.92 713.858 1811.8 713.377C1812.67 712.896 1813.44 712.233 1814.04 711.433C1814.64 710.633 1815.06 709.714 1815.27 708.738C1819.06 694.659 1801.5 687.641 1789.44 686.909C1795.56 682.991 1812.95 672.443 1804.12 666.587C1795.3 660.732 1774.67 675.973 1767.96 681.011C1758.1 688.373 1746.43 699.524 1745.4 711.666C1744.1 725.788 1756.81 717.564 1764.38 714.852Z" fill="#6C63FF" />
  <path opacity="0.1" d="M1764.38 714.852C1774.03 715.541 1779.5 731.256 1786.86 736.035C1787.62 736.709 1788.52 737.214 1789.5 737.517C1790.47 737.82 1791.5 737.913 1792.51 737.791C1793.52 737.669 1794.5 737.335 1795.37 736.809C1796.24 736.284 1797 735.58 1797.58 734.743C1805.46 724.625 1795.68 711.364 1786.34 703.83C1793.1 706.93 1798.66 712.096 1806.02 713.818C1806.96 714.161 1807.96 714.299 1808.96 714.223C1809.95 714.146 1810.92 713.858 1811.8 713.377C1812.67 712.896 1813.44 712.233 1814.04 711.433C1814.64 710.633 1815.06 709.714 1815.27 708.738C1819.06 694.659 1801.5 687.641 1789.44 686.909C1795.56 682.991 1812.95 672.443 1804.12 666.587C1795.3 660.732 1774.67 675.973 1767.96 681.011C1758.1 688.373 1746.43 699.524 1745.4 711.666C1744.1 725.788 1756.81 717.564 1764.38 714.852Z" fill="black" />
  <path d="M1761.5 717.133C1774.07 712.01 1797.49 720.965 1799.69 716.359C1803.99 707.016 1785.44 699.782 1775.23 698.103C1784.75 695.908 1802.96 692.549 1802.79 683.422C1802.53 672.27 1775.1 680.795 1761.03 690.784C1743.29 703.356 1742.9 716.1 1745.65 718.77C1749.44 722.429 1759.39 717.995 1761.5 717.133Z" fill="#6C63FF" />
  <path d="M1694.46 847.676C1690.51 875.955 1684.47 903.903 1676.38 931.288C1676.21 931.762 1675.87 932.159 1675.43 932.406C1674.99 932.653 1674.48 932.735 1673.98 932.636C1673.49 932.537 1673.05 932.264 1672.74 931.867C1672.42 931.469 1672.27 930.974 1672.29 930.47C1676.12 904.637 1683.1 879.407 1686.93 853.66C1691.05 827.584 1692.49 801.154 1691.23 774.784C1688.78 731.385 1676.98 685.187 1648.65 651.217C1648.05 650.442 1649.34 649.279 1649.99 650.054C1706.69 716.186 1697.69 797.258 1697.65 804.492C1705.66 777.109 1713.92 745.765 1744.32 717.866C1745.61 716.66 1746.65 717.263 1746.43 719.286C1741.01 770.048 1726.88 796.785 1697.43 823.694C1696.74 831.76 1695.75 839.754 1694.46 847.676Z" fill="#263238" />
  <path d="M1648.44 658.838C1638.23 654.317 1624.15 667.448 1613.99 668.18C1612.85 668.416 1611.67 668.417 1610.53 668.184C1609.39 667.951 1608.31 667.488 1607.35 666.824C1606.39 666.159 1605.58 665.307 1604.96 664.32C1604.34 663.332 1603.93 662.228 1603.75 661.076C1601.25 646.481 1618.39 638.3 1631.99 635.674C1623.38 635.157 1614.98 637.439 1606.55 635.2C1605.4 635.041 1604.3 634.638 1603.33 634.02C1602.35 633.401 1601.52 632.581 1600.89 631.614C1600.26 630.648 1599.84 629.557 1599.66 628.416C1599.49 627.274 1599.56 626.108 1599.87 624.997C1603.66 608.593 1625.32 611.004 1638.19 616.859C1634.1 609.583 1622.09 589.433 1634.23 588.228C1646.37 587.022 1659.16 613.759 1663.25 622.672C1669.28 635.588 1675.26 653.284 1669.58 666.114C1662.99 680.968 1654.55 665.683 1648.44 658.838Z" fill="#6C63FF" />
  <path opacity="0.1" d="M1648.44 658.838C1638.23 654.317 1624.15 667.448 1613.99 668.18C1612.85 668.416 1611.67 668.417 1610.53 668.184C1609.39 667.951 1608.31 667.488 1607.35 666.824C1606.39 666.159 1605.58 665.307 1604.96 664.32C1604.34 663.332 1603.93 662.228 1603.75 661.076C1601.25 646.481 1618.39 638.3 1631.99 635.674C1623.38 635.157 1614.98 637.439 1606.55 635.2C1605.4 635.041 1604.3 634.638 1603.33 634.02C1602.35 633.401 1601.52 632.581 1600.89 631.614C1600.26 630.648 1599.84 629.557 1599.66 628.416C1599.49 627.274 1599.56 626.108 1599.87 624.997C1603.66 608.593 1625.32 611.004 1638.19 616.859C1634.1 609.583 1622.09 589.433 1634.23 588.228C1646.37 587.022 1659.16 613.759 1663.25 622.672C1669.28 635.588 1675.26 653.284 1669.58 666.114C1662.99 680.968 1654.55 665.683 1648.44 658.838Z" fill="black" />
  <path d="M1650.03 662.712C1640.04 650.657 1611.28 647.084 1611.54 641.185C1612.1 629.259 1635.09 632.014 1646.37 635.846C1637.76 628.441 1621.14 615.137 1626.31 605.966C1632.59 594.772 1655.89 618.323 1664.8 636.105C1676.04 658.493 1669.49 671.711 1665.23 672.916C1659.42 674.639 1651.67 664.736 1650.03 662.712Z" fill="#6C63FF" />
  <path d="M1731.75 862.96L1756.76 1054.08H1604.56C1607.71 1037.12 1636.04 862.745 1636.04 862.745L1731.75 862.96Z" fill="#6C63FF" />
</svg>